REM DIRINDEX 1\6,1\2\7,1\2\8,1\2\9,1\3\10,1\3\11,1\4\12,1\4\13,1\4\14,1\5\15,1\5\16,1\5\17
REM DIRNAME folder01,folder02,folder03,folder04,folder05,folder06,folder07,folder08,folder09,folder10,folder11,folder12,folder13,folder14,folder15,folder16,folder17
TITLE ""
FILE "P2Q_j_1450-1463.mp3" MP3
  TRACK 01 AUDIO
    TITLE "12:cjc040_1095"
    INDEX 01 00:00:00
  TRACK 02 AUDIO
    TITLE "0:"
    INDEX 01 00:01:56
  TRACK 03 AUDIO
    TITLE "13:cjc040_1096"
    INDEX 01 00:02:36
  TRACK 04 AUDIO
    TITLE "0:"
    INDEX 01 00:04:33
  TRACK 05 AUDIO
    TITLE "14:cjc040_1097"
    INDEX 01 00:05:10
  TRACK 06 AUDIO
    TITLE "0:"
    INDEX 01 00:09:47
  TRACK 07 AUDIO
    TITLE "12:cjc040_1098"
    INDEX 01 00:10:27
  TRACK 08 AUDIO
    TITLE "0:"
    INDEX 01 00:12:56
  TRACK 09 AUDIO
    TITLE "13:cjc040_1099"
    INDEX 01 00:13:37
  TRACK 10 AUDIO
    TITLE "0:"
    INDEX 01 00:16:02
  TRACK 11 AUDIO
    TITLE "14:cjc040_1100"
    INDEX 01 00:16:55
  TRACK 12 AUDIO
    TITLE "0:"
    INDEX 01 00:21:11
  TRACK 13 AUDIO
    TITLE "12:cjc040_1101"
    INDEX 01 00:21:58
  TRACK 14 AUDIO
    TITLE "0:"
    INDEX 01 00:24:12
  TRACK 15 AUDIO
    TITLE "13:cjc040_1102"
    INDEX 01 00:24:61
  TRACK 16 AUDIO
    TITLE "0:"
    INDEX 01 00:26:62
  TRACK 17 AUDIO
    TITLE "14:cjc040_1103"
    INDEX 01 00:27:39
  TRACK 18 AUDIO
    TITLE "0:"
    INDEX 01 00:32:29
  TRACK 19 AUDIO
    TITLE "12:cjc040_1104"
    INDEX 01 00:33:07
  TRACK 20 AUDIO
    TITLE "0:"
    INDEX 01 00:34:32
  TRACK 21 AUDIO
    TITLE "13:cjc040_1105"
    INDEX 01 00:35:17
  TRACK 22 AUDIO
    TITLE "0:"
    INDEX 01 00:37:08
  TRACK 23 AUDIO
    TITLE "14:cjc040_1106"
    INDEX 01 00:37:59
  TRACK 24 AUDIO
    TITLE "0:"
    INDEX 01 00:43:11
  TRACK 25 AUDIO
    TITLE "12:cjc040_1107"
    INDEX 01 00:43:64
  TRACK 26 AUDIO
    TITLE "0:"
    INDEX 01 00:45:39
  TRACK 27 AUDIO
    TITLE "13:cjc040_1108"
    INDEX 01 00:46:11
  TRACK 28 AUDIO
    TITLE "0:"
    INDEX 01 00:48:48
  TRACK 29 AUDIO
    TITLE "14:cjc040_1109"
    INDEX 01 00:49:23
  TRACK 30 AUDIO
    TITLE "0:"
    INDEX 01 00:53:15
  TRACK 31 AUDIO
    TITLE "12:cjc040_1110"
    INDEX 01 00:53:68
  TRACK 32 AUDIO
    TITLE "0:"
    INDEX 01 00:56:27
  TRACK 33 AUDIO
    TITLE "13:cjc040_1111"
    INDEX 01 00:57:07
  TRACK 34 AUDIO
    TITLE "0:"
    INDEX 01 00:58:71
  TRACK 35 AUDIO
    TITLE "14:cjc040_1112"
    INDEX 01 00:59:51
  TRACK 36 AUDIO
    TITLE "0:"
    INDEX 01 01:02:71
  TRACK 37 AUDIO
    TITLE "12:cjc040_1113"
    INDEX 01 01:03:57
  TRACK 38 AUDIO
    TITLE "0:"
    INDEX 01 01:05:50
  TRACK 39 AUDIO
    TITLE "13:cjc040_1114"
    INDEX 01 01:06:34
  TRACK 40 AUDIO
    TITLE "0:"
    INDEX 01 01:08:33
  TRACK 41 AUDIO
    TITLE "14:cjc040_1115"
    INDEX 01 01:09:09
  TRACK 42 AUDIO
    TITLE "0:"
    INDEX 01 01:17:45
  TRACK 43 AUDIO
    TITLE "12:cjc040_1116"
    INDEX 01 01:18:19
  TRACK 44 AUDIO
    TITLE "0:"
    INDEX 01 01:20:48
  TRACK 45 AUDIO
    TITLE "13:cjc040_1117"
    INDEX 01 01:21:25
  TRACK 46 AUDIO
    TITLE "0:"
    INDEX 01 01:23:38
  TRACK 47 AUDIO
    TITLE "14:cjc040_1118"
    INDEX 01 01:24:18
  TRACK 48 AUDIO
    TITLE "0:"
    INDEX 01 01:29:15
  TRACK 49 AUDIO
    TITLE "12:cjc040_1119"
    INDEX 01 01:29:72
  TRACK 50 AUDIO
    TITLE "0:"
    INDEX 01 01:31:51
  TRACK 51 AUDIO
    TITLE "13:cjc040_1120"
    INDEX 01 01:32:33
  TRACK 52 AUDIO
    TITLE "0:"
    INDEX 01 01:34:65
  TRACK 53 AUDIO
    TITLE "14:cjc040_1121"
    INDEX 01 01:35:41
  TRACK 54 AUDIO
    TITLE "0:"
    INDEX 01 01:39:23
  TRACK 55 AUDIO
    TITLE "12:cjc040_1122"
    INDEX 01 01:39:68
  TRACK 56 AUDIO
    TITLE "0:"
    INDEX 01 01:41:44
  TRACK 57 AUDIO
    TITLE "13:cjc040_1123"
    INDEX 01 01:42:22
  TRACK 58 AUDIO
    TITLE "0:"
    INDEX 01 01:44:36
  TRACK 59 AUDIO
    TITLE "14:cjc040_1124"
    INDEX 01 01:45:12
  TRACK 60 AUDIO
    TITLE "0:"
    INDEX 01 01:50:35
  TRACK 61 AUDIO
    TITLE "12:cjc040_1125"
    INDEX 01 01:51:09
  TRACK 62 AUDIO
    TITLE "0:"
    INDEX 01 01:52:48
  TRACK 63 AUDIO
    TITLE "13:cjc040_1126"
    INDEX 01 01:53:27
  TRACK 64 AUDIO
    TITLE "0:"
    INDEX 01 01:55:20
  TRACK 65 AUDIO
    TITLE "14:cjc040_1127"
    INDEX 01 01:56:00
  TRACK 66 AUDIO
    TITLE "0:"
    INDEX 01 02:00:74
  TRACK 67 AUDIO
    TITLE "12:cjc040_1128"
    INDEX 01 02:01:58
  TRACK 68 AUDIO
    TITLE "0:"
    INDEX 01 02:03:32
  TRACK 69 AUDIO
    TITLE "13:cjc040_1129"
    INDEX 01 02:04:06
  TRACK 70 AUDIO
    TITLE "0:"
    INDEX 01 02:05:66
  TRACK 71 AUDIO
    TITLE "14:cjc040_1130"
    INDEX 01 02:06:46
  TRACK 72 AUDIO
    TITLE "0:"
    INDEX 01 02:11:39
  TRACK 73 AUDIO
    TITLE "12:cjc040_1131"
    INDEX 01 02:12:19
  TRACK 74 AUDIO
    TITLE "0:"
    INDEX 01 02:14:06
  TRACK 75 AUDIO
    TITLE "13:cjc040_1132"
    INDEX 01 02:14:63
  TRACK 76 AUDIO
    TITLE "0:"
    INDEX 01 02:16:30
  TRACK 77 AUDIO
    TITLE "14:cjc040_1133"
    INDEX 01 02:17:06
  TRACK 78 AUDIO
    TITLE "0:"
    INDEX 01 02:22:47
  TRACK 79 AUDIO
    TITLE "12:cjc040_1134"
    INDEX 01 02:23:23
  TRACK 80 AUDIO
    TITLE "0:"
    INDEX 01 02:25:18
  TRACK 81 AUDIO
    TITLE "13:cjc040_1135"
    INDEX 01 02:25:68
  TRACK 82 AUDIO
    TITLE "0:"
    INDEX 01 02:28:65
  TRACK 83 AUDIO
    TITLE "14:cjc040_1136"
    INDEX 01 02:29:45
  TRACK 84 AUDIO
    TITLE "0:"
    INDEX 01 02:33:17
